<?xml version="1.0" encoding="utf-8"?>
<svg xmlns="http://www.w3.org/2000/svg" xmlns:xlink="http://www.w3.org/1999/xlink" width="300" height="80">
  <clipPath id="cl_3">
    <rect width="300" height="80"></rect>
  </clipPath>
  <g clip-path="url(#cl_3)">
    <path fill="#EBEBEB" transform="translate(182.5 39.3)" d="M-78.057 9.34L-68.937 9.34L-68.937 15.02L-85.657 15.02L-78.057 9.34ZM-100.657 0.02C-100.657 -2.0067 -100.27 -3.9267 -99.497 -5.74C-98.724 -7.5533 -97.657 -9.1533 -96.297 -10.54C-94.91 -11.9533 -93.31 -13.06 -91.497 -13.86C-89.684 -14.66 -87.737 -15.06 -85.657 -15.06C-83.604 -15.06 -81.67 -14.66 -79.857 -13.86C-78.044 -13.06 -76.444 -11.9533 -75.057 -10.54C-73.644 -9.1533 -72.55 -7.5533 -71.777 -5.74C-70.977 -3.9267 -70.577 -2.0067 -70.577 0.02C-70.577 2.1 -70.977 4.0467 -71.777 5.86C-72.55 7.6733 -73.644 9.2733 -75.057 10.66C-76.444 12.02 -78.044 13.0867 -79.857 13.86C-81.67 14.6333 -83.604 15.02 -85.657 15.02C-87.737 15.02 -89.684 14.6333 -91.497 13.86C-93.31 13.0867 -94.91 12.02 -96.297 10.66C-97.657 9.2733 -98.724 7.6733 -99.497 5.86C-100.27 4.0467 -100.657 2.1 -100.657 0.02C-100.657 0.02 -100.657 0.02 -100.657 0.02ZM-94.657 0.02C-94.657 1.3 -94.43 2.5133 -93.977 3.66C-93.497 4.78 -92.844 5.78 -92.017 6.66C-91.164 7.5133 -90.19 8.18 -89.097 8.66C-87.977 9.14 -86.764 9.38 -85.457 9.38C-84.204 9.38 -83.044 9.14 -81.977 8.66C-80.884 8.18 -79.937 7.5133 -79.137 6.66C-78.337 5.8067 -77.71 4.82 -77.257 3.7C-76.804 2.5533 -76.577 1.3267 -76.577 0.02C-76.577 -1.26 -76.817 -2.46 -77.297 -3.58C-77.75 -4.7267 -78.39 -5.7267 -79.217 -6.58C-80.017 -7.4333 -80.964 -8.1 -82.057 -8.58C-83.15 -9.06 -84.337 -9.3 -85.617 -9.3C-86.897 -9.3 -88.084 -9.06 -89.177 -8.58C-90.27 -8.1 -91.23 -7.4333 -92.057 -6.58C-92.884 -5.7267 -93.524 -4.7267 -93.977 -3.58C-94.43 -2.46 -94.657 -1.26 -94.657 0.02C-94.657 0.02 -94.657 0.02 -94.657 0.02ZM-58.287 3.82C-58.287 4.7533 -58.007 5.6467 -57.447 6.5C-56.887 7.3533 -56.154 8.0467 -55.247 8.58C-54.314 9.1133 -53.301 9.38 -52.207 9.38C-51.007 9.38 -49.941 9.1133 -49.007 8.58C-48.074 8.0467 -47.341 7.3533 -46.807 6.5C-46.247 5.6467 -45.967 4.7533 -45.967 3.82C-45.967 3.82 -45.967 -14.74 -45.967 -14.74L-40.247 -14.74C-40.247 -14.74 -40.247 3.94 -40.247 3.94C-40.247 6.1 -40.781 8.02 -41.847 9.7C-42.914 11.3533 -44.354 12.66 -46.167 13.62C-47.981 14.5533 -49.994 15.02 -52.207 15.02C-54.394 15.02 -56.394 14.5533 -58.207 13.62C-59.994 12.66 -61.421 11.3533 -62.487 9.7C-63.554 8.02 -64.087 6.1 -64.087 3.94C-64.087 3.94 -64.087 -14.74 -64.087 -14.74L-58.287 -14.74C-58.287 -14.74 -58.287 3.82 -58.287 3.82ZM-37.687 14.7L-24.407 -15.9L-24.087 -15.9L-10.807 14.7L-17.527 14.7L-26.007 -6.82L-21.807 -9.7L-31.967 14.7L-37.687 14.7ZM-28.607 4.06L-19.767 4.06L-17.727 8.94L-30.407 8.94L-28.607 4.06ZM19.511 15.9L-2.809 -4.26L-1.089 -3.3L-0.969 14.7L-6.849 14.7L-6.849 -15.9L-6.609 -15.9L15.231 4.18L13.951 3.62L13.831 -14.74L19.671 -14.74L19.671 15.9L19.511 15.9ZM24.919 -14.74L44.759 -14.74L44.759 -9.14L37.599 -9.14L37.599 14.7L31.799 14.7L31.799 -9.14L24.919 -9.14L24.919 -14.74ZM47.208 0.02C47.208 -2.0067 47.594 -3.9267 48.368 -5.74C49.141 -7.5533 50.208 -9.1533 51.568 -10.54C52.954 -11.9533 54.554 -13.06 56.368 -13.86C58.181 -14.66 60.128 -15.06 62.208 -15.06C64.261 -15.06 66.194 -14.66 68.008 -13.86C69.821 -13.06 71.421 -11.9533 72.808 -10.54C74.221 -9.1533 75.314 -7.5533 76.088 -5.74C76.888 -3.9267 77.288 -2.0067 77.288 0.02C77.288 2.1 76.888 4.0467 76.088 5.86C75.314 7.6733 74.221 9.2733 72.808 10.66C71.421 12.02 69.821 13.0867 68.008 13.86C66.194 14.6333 64.261 15.02 62.208 15.02C60.128 15.02 58.181 14.6333 56.368 13.86C54.554 13.0867 52.954 12.02 51.568 10.66C50.208 9.2733 49.141 7.6733 48.368 5.86C47.594 4.0467 47.208 2.1 47.208 0.02C47.208 0.02 47.208 0.02 47.208 0.02ZM53.208 0.02C53.208 1.3267 53.434 2.5533 53.888 3.7C54.368 4.82 55.021 5.82 55.848 6.7C56.701 7.5533 57.674 8.22 58.768 8.7C59.888 9.18 61.101 9.42 62.408 9.42C63.661 9.42 64.821 9.18 65.888 8.7C66.981 8.22 67.928 7.5533 68.728 6.7C69.528 5.82 70.154 4.82 70.608 3.7C71.061 2.5533 71.288 1.3267 71.288 0.02C71.288 -1.3133 71.048 -2.5533 70.568 -3.7C70.114 -4.8467 69.474 -5.8467 68.648 -6.7C67.848 -7.58 66.901 -8.26 65.808 -8.74C64.714 -9.22 63.528 -9.46 62.248 -9.46C60.968 -9.46 59.781 -9.22 58.688 -8.74C57.594 -8.26 56.634 -7.58 55.808 -6.7C54.981 -5.8467 54.341 -4.8467 53.888 -3.7C53.434 -2.5533 53.208 -1.3133 53.208 0.02C53.208 0.02 53.208 0.02 53.208 0.02ZM98.457 -7.62C97.337 -8.2333 96.19 -8.74 95.017 -9.14C93.87 -9.54 92.79 -9.74 91.777 -9.74C90.523 -9.74 89.537 -9.4867 88.817 -8.98C88.097 -8.4733 87.737 -7.7133 87.737 -6.7C87.737 -6.0067 88.003 -5.38 88.537 -4.82C89.097 -4.2867 89.803 -3.8067 90.657 -3.38C91.537 -2.9533 92.443 -2.5667 93.377 -2.22C94.23 -1.9 95.07 -1.5133 95.897 -1.06C96.75 -0.6333 97.51 -0.0867001 98.177 0.58C98.843 1.22 99.377 2.0333 99.777 3.02C100.177 3.98 100.377 5.1667 100.377 6.58C100.377 8.0733 99.99 9.46 99.217 10.74C98.443 12.02 97.31 13.06 95.817 13.86C94.323 14.6333 92.483 15.02 90.297 15.02C89.177 15.02 88.03 14.9133 86.857 14.7C85.71 14.46 84.577 14.1133 83.457 13.66C82.337 13.18 81.257 12.58 80.217 11.86C80.217 11.86 82.777 7.34 82.777 7.34C83.47 7.8467 84.217 8.3 85.017 8.7C85.843 9.0733 86.67 9.3667 87.497 9.58C88.323 9.7933 89.083 9.9 89.777 9.9C90.47 9.9 91.163 9.8067 91.857 9.62C92.577 9.4067 93.163 9.06 93.617 8.58C94.097 8.1 94.337 7.4333 94.337 6.58C94.337 5.9933 94.137 5.46 93.737 4.98C93.363 4.5 92.843 4.06 92.177 3.66C91.537 3.26 90.83 2.9133 90.057 2.62C89.15 2.2733 88.217 1.8733 87.257 1.42C86.297 0.9667 85.39 0.42 84.537 -0.22C83.71 -0.8867 83.03 -1.7 82.497 -2.66C81.99 -3.6467 81.737 -4.8467 81.737 -6.26C81.737 -7.9667 82.11 -9.4467 82.857 -10.7C83.63 -11.9533 84.71 -12.94 86.097 -13.66C87.483 -14.4067 89.083 -14.82 90.897 -14.9C93.27 -14.9 95.19 -14.62 96.657 -14.06C98.15 -13.5 99.483 -12.8333 100.657 -12.06C100.657 -12.06 98.457 -7.62 98.457 -7.62Z"></path>
    <defs>
      <linearGradient id="gradient_0" gradientUnits="userSpaceOnUse" x1="13.888901" y1="-16.6" x2="-17.363415" y2="29.686749">
        <stop offset="0" stop-color="#EBEBEB"></stop>
        <stop offset="1" stop-color="#CCC"></stop>
      </linearGradient>
    </defs>
    <path fill="url(#gradient_0)" transform="translate(41.843 40)" d="M-25 -15C-25 -20.5228 -20.5228 -25 -15 -25L15 -25C20.5228 -25 25 -20.5228 25 -15L25 15C25 20.5228 20.5228 25 15 25L-15 25C-20.5228 25 -25 20.5228 -25 15L-25 -15Z"></path>
    <defs>
      <linearGradient id="gradient_1" gradientUnits="userSpaceOnUse" x1="14.72215" y1="-14.58335" x2="-14.58335" y2="14.86105">
        <stop offset="0" stop-color="#80F1EF"></stop>
        <stop offset="0.5" stop-color="#2EB6E8"></stop>
        <stop offset="1" stop-color="#F1B6E8"></stop>
      </linearGradient>
    </defs>
    <path fill="url(#gradient_1)" transform="translate(41.8431 40)" d="M-20.8333 -4.95911e-05C-20.8333 -11.506 -11.506 -20.8333 -4.95911e-05 -20.8333L4.95911e-05 -20.8333C11.506 -20.8333 20.8333 -11.506 20.8333 -4.95911e-05L20.8333 4.95911e-05C20.8333 11.506 11.506 20.8333 4.95911e-05 20.8333L-4.95911e-05 20.8333C-11.506 20.8333 -20.8333 11.506 -20.8333 4.95911e-05L-20.8333 -4.95911e-05Z"></path>
    <defs>
      <radialGradient id="gradient_2" gradientUnits="userSpaceOnUse" cx="2.4999499" cy="-20.00005" fx="2.4999499" fy="-20.00005" r="40.049999" fr="0">
        <stop offset="0" stop-color="#BB7FB2" stop-opacity="0"></stop>
        <stop offset="0.585585" stop-color="#BB7FB2" stop-opacity="0"></stop>
        <stop offset="1" stop-color="#BB7FB2" stop-opacity="0.29803923"></stop>
      </radialGradient>
    </defs>
    <path fill="url(#gradient_2)" transform="translate(41.8431 40)" d="M-20.8333 -4.95911e-05C-20.8333 -11.506 -11.506 -20.8333 -4.95911e-05 -20.8333L4.95911e-05 -20.8333C11.506 -20.8333 20.8333 -11.506 20.8333 -4.95911e-05L20.8333 4.95911e-05C20.8333 11.506 11.506 20.8333 4.95911e-05 20.8333L-4.95911e-05 20.8333C-11.506 20.8333 -20.8333 11.506 -20.8333 4.95911e-05L-20.8333 -4.95911e-05Z"></path>
    <path fill="white" transform="translate(41.843 40)" d="M3.6382 13.4075C2.4786 13.7214 1.2589 13.8889 0 13.8889C-7.6706 13.8889 -13.8889 7.6706 -13.8889 0C-13.8889 -7.6706 -7.6706 -13.8889 0 -13.8889C7.6706 -13.8889 13.8889 -7.6706 13.8889 0C13.8889 1.2589 13.7214 2.4787 13.4074 3.6383C12.2126 2.6662 10.6882 2.0834 9.0277 2.0834C8.6969 2.0834 8.3715 2.1065 8.053 2.1513C8.2359 1.465 8.3334 0.7439 8.3334 0C8.3334 -4.6023 4.6024 -8.3333 1.42109e-14 -8.3333C-4.6023 -8.3333 -8.3333 -4.6023 -8.3333 0C-8.3333 4.6024 -4.6023 8.3334 1.42109e-14 8.3334C0.7439 8.3334 1.4649 8.2359 2.1512 8.0531C2.1064 8.3716 2.0833 8.697 2.0833 9.0278C2.0833 10.6883 2.6661 12.2126 3.6382 13.4075C3.6382 13.4075 3.6382 13.4075 3.6382 13.4075Z"></path>
    <path fill="white" transform="translate(50.8708 49.0278)" d="M0 -4.86111C2.68472 -4.86111 4.86111 -2.68472 4.86111 0C4.86111 2.68472 2.68472 4.86111 0 4.86111C-2.68472 4.86111 -4.86111 2.68472 -4.86111 0C-4.86111 -2.68472 -2.68472 -4.86111 0 -4.86111Z"></path>
  </g>
</svg>