<svg width="100" height="100" viewBox="0 0 100 100" fill="none" xmlns="http://www.w3.org/2000/svg">
<rect width="100" height="100" rx="20" fill="#EBEBEB"/>
<rect width="100" height="100" rx="20" fill="url(#paint0_radial_364_1041)"/>
<rect x="8.33313" y="8.33325" width="83.3333" height="83.3333" rx="41.6667" fill="url(#paint1_linear_364_1041)"/>
<circle cx="49.9998" cy="49.9999" r="41.6667" fill="url(#paint2_radial_364_1041)"/>
<path fill-rule="evenodd" clip-rule="evenodd" d="M57.2757 76.815C54.9566 77.4428 52.5172 77.7777 49.9995 77.7777C34.6582 77.7777 22.2217 65.3412 22.2217 49.9999C22.2217 34.6587 34.6582 22.2222 49.9995 22.2222C65.3407 22.2222 77.7772 34.6587 77.7772 49.9999C77.7772 52.5179 77.4422 54.9575 76.8143 57.2768C74.4246 55.3324 71.3758 54.1667 68.0547 54.1667C67.3933 54.1667 66.7427 54.213 66.1059 54.3024C66.4716 52.9299 66.6665 51.4877 66.6665 50C66.6665 40.7952 59.2046 33.3333 49.9998 33.3333C40.7951 33.3333 33.3332 40.7952 33.3332 50C33.3332 59.2047 40.7951 66.6667 49.9998 66.6667C51.4873 66.6667 52.9293 66.4718 54.3016 66.1062C54.2121 66.7432 54.1659 67.394 54.1659 68.0556C54.1659 71.3766 55.3314 74.4253 57.2757 76.815Z" fill="white"/>
<circle cx="68.0554" cy="68.0555" r="9.72222" fill="white"/>
<defs>
<radialGradient id="paint0_radial_364_1041" cx="0" cy="0" r="1" gradientUnits="userSpaceOnUse" gradientTransform="translate(50 91.25) rotate(-90) scale(82.6389)">
<stop stop-color="#D3D3D3"/>
<stop offset="1" stop-color="#EBEBEB" stop-opacity="0"/>
</radialGradient>
<linearGradient id="paint1_linear_364_1041" x1="79.4442" y1="20.8333" x2="20.8331" y2="79.7221" gradientUnits="userSpaceOnUse">
<stop stop-color="#80F1EF"/>
<stop offset="0.5" stop-color="#2EB6E8"/>
<stop offset="1" stop-color="#F1B6E8"/>
</linearGradient>
<radialGradient id="paint2_radial_364_1041" cx="0" cy="0" r="1" gradientUnits="userSpaceOnUse" gradientTransform="translate(28.3331 49.9999) scale(43.8889)">
<stop stop-color="white" stop-opacity="0.52"/>
<stop offset="1" stop-color="#D9D9D9" stop-opacity="0"/>
</radialGradient>
</defs>
</svg>
