<?xml version="1.0" encoding="utf-8"?>
<svg xmlns="http://www.w3.org/2000/svg" xmlns:xlink="http://www.w3.org/1999/xlink" width="250" height="250">
  <clipPath id="cl_3">
    <rect width="250" height="250"></rect>
  </clipPath>
  <g clip-path="url(#cl_3)">
    <defs>
      <radialGradient id="gradient_0" gradientUnits="userSpaceOnUse" cx="-2.6437263" cy="-2.797303" fx="-2.6437263" fy="-2.797303" r="11.992438" fr="0">
        <stop offset="0" stop-color="#7D43C4"></stop>
        <stop offset="1" stop-color="#603983"></stop>
      </radialGradient>
    </defs>
    <path fill="url(#gradient_0)" transform="matrix(10.4408 0 0 10.4408 125 125)" d="M0.22 -10C0.22 -10 -0.22 -10 -0.22 -10C-1.32457 -10 -2.22 -9.10457 -2.22 -8C-2.22 -8 -2.22 -7.82 -2.22 -7.82C-2.22073 -7.1062 -2.60183 -6.4469 -3.22 -6.09C-3.22 -6.09 -3.65 -5.84 -3.65 -5.84C-4.2688 -5.48273 -5.0312 -5.48273 -5.65 -5.84C-5.65 -5.84 -5.8 -5.92 -5.8 -5.92C-6.75559 -6.47123 -7.97707 -6.14461 -8.53 -5.19C-8.53 -5.19 -8.75 -4.81 -8.75 -4.81C-9.30124 -3.85441 -8.97461 -2.63293 -8.02 -2.08C-8.02 -2.08 -7.87 -1.98 -7.87 -1.98C-7.25491 -1.62489 -6.87429 -0.970221 -6.87 -0.259999C-6.87 -0.259999 -6.87 0.250001 -6.87 0.250001C-6.86715 0.967371 -7.24873 1.63132 -7.87 1.99C-7.87 1.99 -8.02 2.08 -8.02 2.08C-8.97461 2.63293 -9.30124 3.85441 -8.75 4.81C-8.75 4.81 -8.53 5.19 -8.53 5.19C-7.97707 6.14461 -6.75559 6.47124 -5.8 5.92C-5.8 5.92 -5.65 5.84 -5.65 5.84C-5.0312 5.48274 -4.2688 5.48274 -3.65 5.84C-3.65 5.84 -3.22 6.09 -3.22 6.09C-2.60183 6.4469 -2.22073 7.1062 -2.22 7.82C-2.22 7.82 -2.22 8 -2.22 8C-2.22 9.10457 -1.32457 10 -0.22 10C-0.22 10 0.22 10 0.22 10C1.32457 10 2.22 9.10457 2.22 8C2.22 8 2.22 7.82 2.22 7.82C2.22073 7.1062 2.60183 6.4469 3.22 6.09C3.22 6.09 3.65 5.84 3.65 5.84C4.2688 5.48274 5.0312 5.48274 5.65 5.84C5.65 5.84 5.8 5.92 5.8 5.92C6.75559 6.47124 7.97707 6.14461 8.53 5.19C8.53 5.19 8.75 4.8 8.75 4.8C9.30124 3.84441 8.97461 2.62293 8.02 2.07C8.02 2.07 7.87 1.99 7.87 1.99C7.24873 1.63132 6.86715 0.967371 6.87 0.250001C6.87 0.250001 6.87 -0.249999 6.87 -0.249999C6.86715 -0.967369 7.24873 -1.63132 7.87 -1.99C7.87 -1.99 8.02 -2.08 8.02 -2.08C8.97461 -2.63293 9.30124 -3.85441 8.75 -4.81C8.75 -4.81 8.53 -5.19 8.53 -5.19C7.97707 -6.14461 6.75559 -6.47123 5.8 -5.92C5.8 -5.92 5.65 -5.84 5.65 -5.84C5.0312 -5.48273 4.2688 -5.48273 3.65 -5.84C3.65 -5.84 3.22 -6.09 3.22 -6.09C2.60183 -6.4469 2.22073 -7.1062 2.22 -7.82C2.22 -7.82 2.22 -8 2.22 -8C2.22 -9.10457 1.32457 -10 0.22 -10C0.22 -10 0.22 -10 0.22 -10Z"></path>
    <path fill="none" stroke="#562582" stroke-width="10" stroke-linecap="round" stroke-linejoin="round" d="M127.297 20.5922C127.297 20.5922 122.703 20.5922 122.703 20.5922C111.17 20.5922 101.821 29.9412 101.821 41.4738C101.821 41.4738 101.821 43.3531 101.821 43.3531C101.814 50.8057 97.8348 57.6893 91.3807 61.4156C91.3807 61.4156 86.8911 64.0258 86.8911 64.0258C80.4304 67.756 72.4704 67.756 66.0096 64.0258C66.0096 64.0258 64.4435 63.1906 64.4435 63.1906C54.4664 57.4353 41.7132 60.8455 35.9401 70.8123C35.9401 70.8123 33.6432 74.7798 33.6432 74.7798C27.8879 84.757 31.298 97.5102 41.2649 103.283C41.2649 103.283 42.8311 104.327 42.8311 104.327C49.2531 108.035 53.2271 114.87 53.2718 122.285C53.2718 122.285 53.2718 127.61 53.2718 127.61C53.3016 135.1 49.3176 142.032 42.8311 145.777C42.8311 145.777 41.2649 146.717 41.2649 146.717C31.298 152.49 27.8879 165.243 33.6432 175.22C33.6432 175.22 35.9401 179.188 35.9401 179.188C41.7132 189.155 54.4664 192.565 64.4435 186.809C64.4435 186.809 66.0096 185.974 66.0096 185.974C72.4704 182.244 80.4304 182.244 86.8911 185.974C86.8911 185.974 91.3807 188.584 91.3807 188.584C97.8348 192.311 101.814 199.194 101.821 206.647C101.821 206.647 101.821 208.526 101.821 208.526C101.821 220.059 111.17 229.408 122.703 229.408C122.703 229.408 127.297 229.408 127.297 229.408C138.83 229.408 148.179 220.059 148.179 208.526C148.179 208.526 148.179 206.647 148.179 206.647C148.186 199.194 152.165 192.311 158.619 188.584C158.619 188.584 163.109 185.974 163.109 185.974C169.57 182.244 177.53 182.244 183.99 185.974C183.99 185.974 185.557 186.809 185.557 186.809C195.534 192.565 208.287 189.155 214.06 179.188C214.06 179.188 216.357 175.116 216.357 175.116C222.112 165.139 218.702 152.385 208.735 146.612C208.735 146.612 207.169 145.777 207.169 145.777C200.682 142.032 196.698 135.1 196.728 127.61C196.728 127.61 196.728 122.39 196.728 122.39C196.698 114.9 200.682 107.968 207.169 104.223C207.169 104.223 208.735 103.283 208.735 103.283C218.702 97.5102 222.112 84.757 216.357 74.7798C216.357 74.7798 214.06 70.8123 214.06 70.8123C208.287 60.8455 195.534 57.4353 185.557 63.1906C185.557 63.1906 183.99 64.0258 183.99 64.0258C177.53 67.756 169.57 67.756 163.109 64.0258C163.109 64.0258 158.619 61.4156 158.619 61.4156C152.165 57.6893 148.186 50.8057 148.179 43.3531C148.179 43.3531 148.179 41.4738 148.179 41.4738C148.179 29.9412 138.83 20.5922 127.297 20.5922C127.297 20.5922 127.297 20.5922 127.297 20.5922Z"></path>
    <path fill="none" stroke="#3F0F6B" stroke-width="10" stroke-linecap="round" stroke-linejoin="round" d="M117.223 228.681C118.969 229.155 120.807 229.408 122.703 229.408C122.703 229.408 127.297 229.408 127.297 229.408C138.83 229.408 148.179 220.059 148.179 208.526C148.179 208.526 148.179 206.647 148.179 206.647C148.186 199.194 152.165 192.311 158.619 188.584C158.619 188.584 163.109 185.974 163.109 185.974C169.57 182.244 177.53 182.244 183.99 185.974C183.99 185.974 185.557 186.809 185.557 186.809C195.534 192.565 208.287 189.155 214.06 179.188C214.06 179.188 216.357 175.116 216.357 175.116C222.112 165.139 218.702 152.385 208.735 146.612C208.735 146.612 207.169 145.777 207.169 145.777C201.131 142.291 197.261 136.043 196.779 129.155"></path>
    <path fill="none" stroke="#3F0F6B" stroke-width="10" stroke-linecap="round" stroke-linejoin="round" d="M63.4131 187.366C63.7596 187.191 64.1031 187.006 64.4435 186.809C64.4435 186.809 66.0096 185.974 66.0096 185.974C72.4704 182.244 80.4304 182.244 86.8911 185.974C86.8911 185.974 91.3807 188.584 91.3807 188.584C93.3862 189.742 95.1527 191.205 96.6353 192.895"></path>
    <path fill="none" stroke="#EEDBFF" stroke-width="10" stroke-linecap="round" stroke-linejoin="round" d="M118.083 21.1051C108.773 23.2078 101.821 31.5289 101.821 41.4738C101.821 41.4738 101.821 43.3531 101.821 43.3531C101.814 50.8057 97.8348 57.6893 91.3807 61.4156C91.3807 61.4156 86.8911 64.0258 86.8911 64.0258C80.4304 67.756 72.4704 67.756 66.0096 64.0258C66.0096 64.0258 64.4435 63.1906 64.4435 63.1906C54.4664 57.4353 41.7132 60.8455 35.9401 70.8123C35.9401 70.8123 33.6432 74.7798 33.6432 74.7798C31.4337 78.61 30.5751 82.8494 30.9196 86.9458"></path>
    <path fill="none" stroke="#EEDBFF" stroke-width="10" stroke-linecap="round" stroke-linejoin="round" d="M209.126 65.0389C202.604 59.7656 193.254 58.7502 185.557 63.1906C185.557 63.1906 183.99 64.0258 183.99 64.0258C178.875 66.9794 172.819 67.5943 167.312 65.8706"></path>
    <path fill="none" stroke="#EEDBFF" stroke-width="10" stroke-linecap="round" stroke-linejoin="round" d="M51.7881 135.425C50.0773 139.715 46.9615 143.392 42.8311 145.777C42.8311 145.777 41.2649 146.717 41.2649 146.717C32.5895 151.742 28.8816 162.055 31.862 171.223"></path>
    <clipPath id="cl_4">
      <path d="M127.297 20.5922C127.297 20.5922 122.703 20.5922 122.703 20.5922C111.17 20.5922 101.821 29.9412 101.821 41.4738C101.821 41.4738 101.821 43.3531 101.821 43.3531C101.814 50.8057 97.8348 57.6893 91.3807 61.4156C91.3807 61.4156 86.8911 64.0258 86.8911 64.0258C80.4304 67.756 72.4704 67.756 66.0096 64.0258C66.0096 64.0258 64.4435 63.1906 64.4435 63.1906C54.4664 57.4353 41.7132 60.8455 35.9401 70.8123C35.9401 70.8123 33.6432 74.7798 33.6432 74.7798C27.8879 84.757 31.298 97.5102 41.2649 103.283C41.2649 103.283 42.8311 104.327 42.8311 104.327C49.2531 108.035 53.2271 114.87 53.2718 122.285C53.2718 122.285 53.2718 127.61 53.2718 127.61C53.3016 135.1 49.3176 142.032 42.8311 145.777C42.8311 145.777 41.2649 146.717 41.2649 146.717C31.298 152.49 27.8879 165.243 33.6432 175.22C33.6432 175.22 35.9401 179.188 35.9401 179.188C41.7132 189.155 54.4664 192.565 64.4435 186.809C64.4435 186.809 66.0096 185.974 66.0096 185.974C72.4704 182.244 80.4304 182.244 86.8911 185.974C86.8911 185.974 91.3807 188.584 91.3807 188.584C97.8348 192.311 101.814 199.194 101.821 206.647C101.821 206.647 101.821 208.526 101.821 208.526C101.821 220.059 111.17 229.408 122.703 229.408C122.703 229.408 127.297 229.408 127.297 229.408C138.83 229.408 148.179 220.059 148.179 208.526C148.179 208.526 148.179 206.647 148.179 206.647C148.186 199.194 152.165 192.311 158.619 188.584C158.619 188.584 163.109 185.974 163.109 185.974C169.57 182.244 177.53 182.244 183.99 185.974C183.99 185.974 185.557 186.809 185.557 186.809C195.534 192.565 208.287 189.155 214.06 179.188C214.06 179.188 216.357 175.116 216.357 175.116C222.112 165.139 218.702 152.385 208.735 146.612C208.735 146.612 207.169 145.777 207.169 145.777C200.682 142.032 196.698 135.1 196.728 127.61C196.728 127.61 196.728 122.39 196.728 122.39C196.698 114.9 200.682 107.968 207.169 104.223C207.169 104.223 208.735 103.283 208.735 103.283C218.702 97.5102 222.112 84.757 216.357 74.7798C216.357 74.7798 214.06 70.8123 214.06 70.8123C208.287 60.8455 195.534 57.4353 185.557 63.1906C185.557 63.1906 183.99 64.0258 183.99 64.0258C177.53 67.756 169.57 67.756 163.109 64.0258C163.109 64.0258 158.619 61.4156 158.619 61.4156C152.165 57.6893 148.186 50.8057 148.179 43.3531C148.179 43.3531 148.179 41.4738 148.179 41.4738C148.179 29.9412 138.83 20.5922 127.297 20.5922C127.297 20.5922 127.297 20.5922 127.297 20.5922Z"></path>
    </clipPath>
    <g clip-path="url(#cl_4)">
      <path fill="#D3A8FF" fill-opacity="0.2" transform="translate(-75.7999 117.097)" d="M0 -3.8743e-06L187.291 -187.291L239.617 -187.291L0 52.3261L0 -3.8743e-06Z"></path>
    </g>
    <defs>
      <radialGradient id="gradient_1" gradientUnits="userSpaceOnUse" cx="-0.75463998" cy="-1.2499952" fx="-0.75463998" fy="-1.2499952" r="3.7713766" fr="0">
        <stop offset="0" stop-color="#CCBA6F"></stop>
        <stop offset="1" stop-color="#B59C35"></stop>
      </radialGradient>
    </defs>
    <path fill="url(#gradient_1)" transform="matrix(10.4408 0 0 10.4408 125 125)" d="M0 -3C1.65685 -3 3 -1.65685 3 9.53674e-07C3 1.65686 1.65685 3 0 3C-1.65685 3 -3 1.65686 -3 9.53674e-07C-3 -1.65685 -1.65685 -3 0 -3Z"></path>
    <path fill="none" stroke="#9F8621" stroke-width="10" stroke-linecap="round" stroke-linejoin="round" d="M125 93.6777C142.299 93.6777 156.322 107.701 156.322 125C156.322 142.299 142.299 156.322 125 156.322C107.701 156.322 93.6777 142.299 93.6777 125C93.6777 107.701 107.701 93.6777 125 93.6777Z"></path>
    <path fill="none" stroke="#96671D" stroke-width="10" stroke-linecap="round" stroke-linejoin="round" d="M156.18 121.993C156.274 122.982 156.322 123.986 156.322 125C156.322 138.917 147.245 150.715 134.688 154.795"></path>
    <path fill="none" stroke="#96671D" stroke-width="10" stroke-linecap="round" stroke-linejoin="round" d="M115.771 154.94C110.993 153.469 106.703 150.886 103.202 147.493"></path>
    <path fill="none" stroke="#FFF4E3" stroke-width="10" stroke-linecap="round" stroke-linejoin="round" d="M93.6936 126.011C93.683 125.675 93.6777 125.338 93.6777 125C93.6777 108.547 106.364 95.0561 122.489 93.7769"></path>
  </g>
</svg>